<mxfile host="Electron" modified="2023-11-25T13:04:04.222Z" agent="Mozilla/5.0 (X11; Linux x86_64) AppleWebKit/537.36 (KHTML, like Gecko) draw.io/22.1.2 Chrome/114.0.5735.289 Electron/25.9.4 Safari/537.36" etag="OP_5oBngLgnMWqe24g3C" version="22.1.2" type="device">
  <diagram name="Page-1" id="6-ypodGU4imuhWLOmmUE">
    <mxGraphModel dx="1572" dy="891" grid="1" gridSize="10" guides="1" tooltips="1" connect="1" arrows="1" fold="1" page="1" pageScale="1" pageWidth="1169" pageHeight="827" math="0" shadow="0">
      <root>
        <mxCell id="0" />
        <mxCell id="1" parent="0" />
        <mxCell id="wig7u1WO7MASWXM3mxRy-4" style="edgeStyle=orthogonalEdgeStyle;orthogonalLoop=1;jettySize=auto;html=1;exitX=1;exitY=0.75;exitDx=0;exitDy=0;entryX=0;entryY=0.5;entryDx=0;entryDy=0;curved=1;" parent="1" source="wig7u1WO7MASWXM3mxRy-5" target="wig7u1WO7MASWXM3mxRy-10" edge="1">
          <mxGeometry relative="1" as="geometry" />
        </mxCell>
        <mxCell id="fpALSdUo2TDQL6afOGSB-9" value="" style="group" vertex="1" connectable="0" parent="1">
          <mxGeometry x="30" y="60" width="247.06" height="210" as="geometry" />
        </mxCell>
        <mxCell id="fpALSdUo2TDQL6afOGSB-3" value="Тотализатор&lt;br&gt;&lt;br&gt;&lt;br&gt;&lt;br&gt;&lt;br&gt;&lt;br&gt;&lt;br&gt;&lt;br&gt;&lt;br&gt;&lt;br&gt;&lt;br&gt;&lt;br&gt;" style="rounded=1;whiteSpace=wrap;html=1;fillColor=#9E7BCD;" vertex="1" parent="fpALSdUo2TDQL6afOGSB-9">
          <mxGeometry width="247.06" height="210" as="geometry" />
        </mxCell>
        <mxCell id="wig7u1WO7MASWXM3mxRy-6" value="Ставки" style="rounded=1;whiteSpace=wrap;html=1;" parent="fpALSdUo2TDQL6afOGSB-9" vertex="1">
          <mxGeometry x="47.06" y="40" width="152.94" height="130" as="geometry" />
        </mxCell>
        <mxCell id="fpALSdUo2TDQL6afOGSB-11" value="" style="group" vertex="1" connectable="0" parent="1">
          <mxGeometry x="370" y="10" width="247.05999999999995" height="210" as="geometry" />
        </mxCell>
        <mxCell id="fpALSdUo2TDQL6afOGSB-1" value="Оказание услуг&lt;br&gt;&lt;br&gt;&lt;br&gt;&lt;br&gt;&lt;br&gt;&lt;br&gt;&lt;br&gt;&lt;br&gt;&lt;br&gt;&lt;br&gt;&lt;br&gt;&lt;br&gt;" style="rounded=1;whiteSpace=wrap;html=1;fillColor=#73a894;container=0;" vertex="1" parent="fpALSdUo2TDQL6afOGSB-11">
          <mxGeometry width="247.06" height="210" as="geometry" />
        </mxCell>
        <mxCell id="wig7u1WO7MASWXM3mxRy-5" value="Оказание услуг" style="rounded=1;whiteSpace=wrap;html=1;container=0;" parent="fpALSdUo2TDQL6afOGSB-11" vertex="1">
          <mxGeometry x="47.06" y="40" width="152.94" height="130" as="geometry" />
        </mxCell>
        <mxCell id="fpALSdUo2TDQL6afOGSB-12" value="" style="group" vertex="1" connectable="0" parent="1">
          <mxGeometry x="360" y="340" width="247.05999999999995" height="210" as="geometry" />
        </mxCell>
        <mxCell id="fpALSdUo2TDQL6afOGSB-5" value="Расходники&lt;br&gt;&lt;br&gt;&lt;br&gt;&lt;br&gt;&lt;br&gt;&lt;br&gt;&lt;br&gt;&lt;br&gt;&lt;br&gt;&lt;br&gt;&lt;br&gt;&lt;br&gt;&lt;br&gt;" style="rounded=1;whiteSpace=wrap;html=1;fillColor=#9e7bcd;" vertex="1" parent="fpALSdUo2TDQL6afOGSB-12">
          <mxGeometry width="247.06" height="210" as="geometry" />
        </mxCell>
        <mxCell id="wig7u1WO7MASWXM3mxRy-9" value="Отдел расходников" style="rounded=1;whiteSpace=wrap;html=1;" parent="fpALSdUo2TDQL6afOGSB-12" vertex="1">
          <mxGeometry x="58.83" y="60" width="129.41" height="110" as="geometry" />
        </mxCell>
        <mxCell id="fpALSdUo2TDQL6afOGSB-13" value="" style="group" vertex="1" connectable="0" parent="1">
          <mxGeometry x="740" y="320" width="247.05999999999995" height="290" as="geometry" />
        </mxCell>
        <mxCell id="fpALSdUo2TDQL6afOGSB-7" value="Контроль качества&lt;br&gt;&lt;br&gt;&lt;br&gt;&lt;br&gt;&lt;br&gt;&lt;br&gt;&lt;br&gt;&lt;br&gt;&lt;br&gt;&lt;br&gt;&lt;br&gt;" style="rounded=1;whiteSpace=wrap;html=1;fillColor=#9E7BCD;" vertex="1" parent="fpALSdUo2TDQL6afOGSB-13">
          <mxGeometry width="247.06" height="210" as="geometry" />
        </mxCell>
        <mxCell id="wig7u1WO7MASWXM3mxRy-10" value="Контроль&lt;br&gt;качества" style="rounded=1;whiteSpace=wrap;html=1;" parent="fpALSdUo2TDQL6afOGSB-13" vertex="1">
          <mxGeometry x="58.53" y="60" width="130" height="120" as="geometry" />
        </mxCell>
        <mxCell id="fpALSdUo2TDQL6afOGSB-14" value="" style="group" vertex="1" connectable="0" parent="1">
          <mxGeometry x="760" y="30" width="247.05999999999995" height="210" as="geometry" />
        </mxCell>
        <mxCell id="fpALSdUo2TDQL6afOGSB-8" value="" style="rounded=1;whiteSpace=wrap;html=1;fillColor=#a0a0a0;" vertex="1" parent="fpALSdUo2TDQL6afOGSB-14">
          <mxGeometry width="247.06" height="210" as="geometry" />
        </mxCell>
        <mxCell id="wig7u1WO7MASWXM3mxRy-7" value="Бухгалтерия" style="rounded=1;whiteSpace=wrap;html=1;" parent="fpALSdUo2TDQL6afOGSB-14" vertex="1">
          <mxGeometry x="23.529999999999973" y="20" width="200" height="170" as="geometry" />
        </mxCell>
        <mxCell id="fpALSdUo2TDQL6afOGSB-15" value="" style="edgeStyle=orthogonalEdgeStyle;orthogonalLoop=1;jettySize=auto;html=1;endArrow=none;endFill=0;curved=1;" edge="1" parent="1" source="wig7u1WO7MASWXM3mxRy-5" target="wig7u1WO7MASWXM3mxRy-9">
          <mxGeometry relative="1" as="geometry" />
        </mxCell>
        <mxCell id="fpALSdUo2TDQL6afOGSB-16" value="" style="orthogonalLoop=1;jettySize=auto;html=1;endArrow=none;endFill=0;edgeStyle=orthogonalEdgeStyle;curved=1;" edge="1" parent="1" source="fpALSdUo2TDQL6afOGSB-1" target="wig7u1WO7MASWXM3mxRy-7">
          <mxGeometry relative="1" as="geometry" />
        </mxCell>
        <mxCell id="fpALSdUo2TDQL6afOGSB-17" value="" style="edgeStyle=orthogonalEdgeStyle;orthogonalLoop=1;jettySize=auto;html=1;curved=1;endArrow=none;endFill=0;" edge="1" parent="1" source="fpALSdUo2TDQL6afOGSB-1" target="fpALSdUo2TDQL6afOGSB-3">
          <mxGeometry relative="1" as="geometry" />
        </mxCell>
        <mxCell id="fpALSdUo2TDQL6afOGSB-6" value="Устройство котом в MCF&lt;br&gt;&lt;br&gt;&lt;br&gt;&lt;br&gt;&lt;br&gt;&lt;br&gt;&lt;br&gt;&lt;br&gt;&lt;br&gt;&lt;br&gt;&lt;br&gt;&lt;br&gt;" style="rounded=1;whiteSpace=wrap;html=1;fillColor=#9E7BCD;" vertex="1" parent="1">
          <mxGeometry x="20" y="330" width="247.06" height="210" as="geometry" />
        </mxCell>
        <mxCell id="-GNpE_ClzCmvl6oZTril-1" value="Тестирование&lt;br&gt;и определение&lt;br&gt;характеристик" style="rounded=1;whiteSpace=wrap;html=1;" parent="1" vertex="1">
          <mxGeometry x="53.53" y="375" width="180" height="145" as="geometry" />
        </mxCell>
        <mxCell id="fpALSdUo2TDQL6afOGSB-18" style="edgeStyle=orthogonalEdgeStyle;orthogonalLoop=1;jettySize=auto;html=1;exitX=0.25;exitY=1;exitDx=0;exitDy=0;entryX=0.5;entryY=0;entryDx=0;entryDy=0;endArrow=none;endFill=0;curved=1;" edge="1" parent="1" source="wig7u1WO7MASWXM3mxRy-5" target="-GNpE_ClzCmvl6oZTril-1">
          <mxGeometry relative="1" as="geometry" />
        </mxCell>
      </root>
    </mxGraphModel>
  </diagram>
</mxfile>
